<svg width="374" height="101" viewBox="0 0 374 101" fill="none" xmlns="http://www.w3.org/2000/svg">
<path fill-rule="evenodd" clip-rule="evenodd" d="M41.9854 0.5C8.44935 4.46341 -7.70961 38.6098 3.5708 58.1219C-5.67727 79.5886 8.14447 99.5854 28.2659 100.5H56.6196C88.3656 93.3561 110.888 62.6951 95.3391 42.2683C103.907 24.6997 96.2542 4.76829 76.1318 0.5H41.9854ZM71.5588 17.8779C85.2783 17.878 85.5832 39.2194 71.5588 39.2194H47.1686C43.0927 39.1994 39.2417 42.8779 38.632 45.317C36.9313 52.1198 22.1686 59.6462 17.9003 45.0121V40.134C17.9003 32.5121 32.8393 17.8779 45.0344 17.8779H71.5588ZM28.6091 61.0412C14.5847 61.0412 14.8896 82.3826 28.6091 82.3827H55.1335C67.3286 82.3827 82.2676 67.7485 82.2676 60.1266V55.2485C77.9993 40.6144 63.2366 48.1408 61.5359 54.9436C60.9261 57.3827 57.0751 61.0612 52.9993 61.0412L28.6091 61.0412Z" fill="white"/>
<path d="M140.74 45.6989C140.503 44.9318 140.176 44.2453 139.76 43.6392C139.352 43.0237 138.86 42.4981 138.282 42.0625C137.714 41.6269 137.061 41.3002 136.322 41.0824C135.584 40.8551 134.779 40.7415 133.907 40.7415C132.345 40.7415 130.953 41.1345 129.731 41.9205C128.51 42.7064 127.549 43.8617 126.848 45.3864C126.156 46.9015 125.811 48.7481 125.811 50.9261C125.811 53.1231 126.156 54.9839 126.848 56.5085C127.539 58.0331 128.5 59.1932 129.731 59.9886C130.962 60.7746 132.392 61.1676 134.021 61.1676C135.498 61.1676 136.777 60.8835 137.856 60.3153C138.945 59.7472 139.783 58.9422 140.37 57.9006C140.958 56.8494 141.251 55.6184 141.251 54.2074L142.444 54.392H134.547V50.2727H146.351V53.767C146.351 56.2576 145.82 58.4119 144.76 60.2301C143.699 62.0483 142.241 63.4498 140.385 64.4347C138.529 65.41 136.398 65.8977 133.993 65.8977C131.313 65.8977 128.959 65.2964 126.933 64.0938C124.916 62.8816 123.339 61.1629 122.203 58.9375C121.076 56.7027 120.513 54.0511 120.513 50.983C120.513 48.6345 120.844 46.5369 121.507 44.6903C122.179 42.8438 123.117 41.2765 124.319 39.9886C125.522 38.6913 126.933 37.7064 128.552 37.0341C130.172 36.3523 131.933 36.0114 133.836 36.0114C135.446 36.0114 136.947 36.2481 138.339 36.7216C139.731 37.1856 140.967 37.8485 142.047 38.7102C143.136 39.572 144.031 40.5947 144.731 41.7784C145.432 42.9621 145.891 44.2689 146.109 45.6989H140.74ZM156.361 36.4091V65.5H151.219V36.4091H156.361ZM167.927 65.9403C166.545 65.9403 165.299 65.6941 164.191 65.2017C163.093 64.6998 162.222 63.9612 161.578 62.9858C160.943 62.0104 160.626 60.8078 160.626 59.3778C160.626 58.1468 160.853 57.1288 161.308 56.3239C161.763 55.5189 162.383 54.875 163.169 54.392C163.955 53.9091 164.84 53.5445 165.825 53.2983C166.819 53.0426 167.847 52.858 168.907 52.7443C170.186 52.6117 171.223 52.4934 172.018 52.3892C172.814 52.2756 173.391 52.1051 173.751 51.8778C174.12 51.6411 174.305 51.2765 174.305 50.7841V50.6989C174.305 49.6288 173.988 48.8002 173.353 48.2131C172.719 47.6259 171.805 47.3324 170.612 47.3324C169.352 47.3324 168.353 47.607 167.615 48.1562C166.886 48.7055 166.393 49.3542 166.138 50.1023L161.336 49.4205C161.715 48.0947 162.34 46.9867 163.211 46.0966C164.083 45.197 165.148 44.5246 166.407 44.0795C167.667 43.625 169.059 43.3977 170.584 43.3977C171.635 43.3977 172.681 43.5208 173.723 43.767C174.764 44.0133 175.716 44.4205 176.578 44.9886C177.44 45.5473 178.131 46.3097 178.652 47.2756C179.182 48.2415 179.447 49.4489 179.447 50.8977V65.5H174.504V62.5028H174.334C174.021 63.1089 173.581 63.6771 173.013 64.2074C172.454 64.7282 171.748 65.1496 170.896 65.4716C170.053 65.7841 169.064 65.9403 167.927 65.9403ZM169.263 62.1619C170.295 62.1619 171.19 61.9583 171.947 61.5511C172.705 61.1345 173.287 60.5852 173.694 59.9034C174.111 59.2216 174.319 58.4782 174.319 57.6733V55.1023C174.158 55.2348 173.884 55.358 173.495 55.4716C173.117 55.5852 172.691 55.6847 172.217 55.7699C171.744 55.8551 171.275 55.9309 170.811 55.9972C170.347 56.0634 169.944 56.1203 169.603 56.1676C168.836 56.2718 168.15 56.4422 167.544 56.679C166.938 56.9157 166.459 57.2472 166.109 57.6733C165.759 58.09 165.584 58.6297 165.584 59.2926C165.584 60.2396 165.929 60.9545 166.62 61.4375C167.312 61.9205 168.192 62.1619 169.263 62.1619ZM184.618 65.5V43.6818H189.532V47.3892H189.788C190.243 46.1392 190.995 45.1638 192.047 44.4631C193.098 43.7528 194.352 43.3977 195.811 43.3977C197.288 43.3977 198.533 43.7576 199.547 44.4773C200.569 45.1875 201.289 46.1581 201.706 47.3892H201.933C202.416 46.1771 203.23 45.2112 204.376 44.4915C205.531 43.7623 206.9 43.3977 208.481 43.3977C210.489 43.3977 212.127 44.0322 213.396 45.3011C214.665 46.5701 215.299 48.4214 215.299 50.8551V65.5H210.143V51.6506C210.143 50.2964 209.783 49.3068 209.064 48.6818C208.344 48.0473 207.463 47.7301 206.422 47.7301C205.181 47.7301 204.21 48.1184 203.51 48.8949C202.818 49.6619 202.473 50.661 202.473 51.892V65.5H197.43V51.4375C197.43 50.3106 197.089 49.411 196.407 48.7386C195.735 48.0663 194.854 47.7301 193.765 47.7301C193.027 47.7301 192.354 47.9195 191.748 48.2983C191.142 48.6676 190.659 49.1932 190.299 49.875C189.94 50.5473 189.76 51.3333 189.76 52.233V65.5H184.618ZM245.644 46.2244H240.331C240.18 45.3532 239.901 44.5814 239.493 43.9091C239.086 43.2273 238.58 42.6496 237.973 42.1761C237.367 41.7027 236.676 41.3475 235.9 41.1108C235.133 40.8646 234.304 40.7415 233.414 40.7415C231.832 40.7415 230.431 41.1392 229.209 41.9347C227.988 42.7206 227.031 43.8759 226.34 45.4006C225.649 46.9157 225.303 48.767 225.303 50.9545C225.303 53.1799 225.649 55.0549 226.34 56.5795C227.041 58.0947 227.997 59.2405 229.209 60.017C230.431 60.7841 231.828 61.1676 233.4 61.1676C234.271 61.1676 235.085 61.054 235.843 60.8267C236.61 60.59 237.296 60.2443 237.902 59.7898C238.518 59.3352 239.034 58.7765 239.451 58.1136C239.877 57.4508 240.17 56.6932 240.331 55.8409L245.644 55.8693C245.445 57.2519 245.014 58.5492 244.351 59.7614C243.698 60.9735 242.841 62.0436 241.78 62.9716C240.72 63.8902 239.479 64.6098 238.059 65.1307C236.638 65.642 235.062 65.8977 233.329 65.8977C230.772 65.8977 228.49 65.3059 226.482 64.1222C224.474 62.9384 222.893 61.2292 221.738 58.9943C220.582 56.7595 220.005 54.0795 220.005 50.9545C220.005 47.8201 220.587 45.1402 221.752 42.9148C222.917 40.6799 224.503 38.9706 226.51 37.7869C228.518 36.6032 230.791 36.0114 233.329 36.0114C234.948 36.0114 236.454 36.2386 237.846 36.6932C239.238 37.1477 240.478 37.8153 241.567 38.696C242.656 39.5672 243.551 40.6373 244.252 41.9062C244.962 43.1657 245.426 44.6051 245.644 46.2244ZM256.521 65.9403C255.138 65.9403 253.893 65.6941 252.785 65.2017C251.687 64.6998 250.816 63.9612 250.172 62.9858C249.537 62.0104 249.22 60.8078 249.22 59.3778C249.22 58.1468 249.447 57.1288 249.902 56.3239C250.356 55.5189 250.977 54.875 251.763 54.392C252.549 53.9091 253.434 53.5445 254.419 53.2983C255.413 53.0426 256.441 52.858 257.501 52.7443C258.78 52.6117 259.816 52.4934 260.612 52.3892C261.407 52.2756 261.985 52.1051 262.345 51.8778C262.714 51.6411 262.899 51.2765 262.899 50.7841V50.6989C262.899 49.6288 262.582 48.8002 261.947 48.2131C261.313 47.6259 260.399 47.3324 259.206 47.3324C257.946 47.3324 256.947 47.607 256.209 48.1562C255.479 48.7055 254.987 49.3542 254.731 50.1023L249.93 49.4205C250.309 48.0947 250.934 46.9867 251.805 46.0966C252.676 45.197 253.742 44.5246 255.001 44.0795C256.261 43.625 257.653 43.3977 259.177 43.3977C260.228 43.3977 261.275 43.5208 262.316 43.767C263.358 44.0133 264.31 44.4205 265.172 44.9886C266.033 45.5473 266.725 46.3097 267.245 47.2756C267.776 48.2415 268.041 49.4489 268.041 50.8977V65.5H263.098V62.5028H262.927C262.615 63.1089 262.174 63.6771 261.606 64.2074C261.048 64.7282 260.342 65.1496 259.49 65.4716C258.647 65.7841 257.657 65.9403 256.521 65.9403ZM257.856 62.1619C258.888 62.1619 259.783 61.9583 260.541 61.5511C261.299 61.1345 261.881 60.5852 262.288 59.9034C262.705 59.2216 262.913 58.4782 262.913 57.6733V55.1023C262.752 55.2348 262.477 55.358 262.089 55.4716C261.71 55.5852 261.284 55.6847 260.811 55.7699C260.337 55.8551 259.869 55.9309 259.405 55.9972C258.941 56.0634 258.538 56.1203 258.197 56.1676C257.43 56.2718 256.744 56.4422 256.138 56.679C255.531 56.9157 255.053 57.2472 254.703 57.6733C254.352 58.09 254.177 58.6297 254.177 59.2926C254.177 60.2396 254.523 60.9545 255.214 61.4375C255.906 61.9205 256.786 62.1619 257.856 62.1619ZM273.211 73.6818V43.6818H278.268V47.2898H278.566C278.832 46.7595 279.206 46.196 279.689 45.5994C280.172 44.9934 280.825 44.4773 281.649 44.0511C282.473 43.6155 283.524 43.3977 284.802 43.3977C286.488 43.3977 288.008 43.8286 289.362 44.6903C290.726 45.5426 291.805 46.8068 292.601 48.483C293.406 50.1496 293.808 52.1951 293.808 54.6193C293.808 57.0152 293.415 59.0511 292.629 60.7273C291.843 62.4034 290.773 63.6818 289.419 64.5625C288.065 65.4432 286.531 65.8835 284.816 65.8835C283.566 65.8835 282.53 65.6752 281.706 65.2585C280.882 64.8419 280.219 64.34 279.717 63.7528C279.225 63.1562 278.841 62.5928 278.566 62.0625H278.353V73.6818H273.211ZM278.254 54.5909C278.254 56.0019 278.453 57.2377 278.851 58.2983C279.258 59.3589 279.84 60.1875 280.598 60.7841C281.365 61.3712 282.293 61.6648 283.382 61.6648C284.518 61.6648 285.47 61.3617 286.237 60.7557C287.004 60.1402 287.582 59.3021 287.97 58.2415C288.368 57.1714 288.566 55.9545 288.566 54.5909C288.566 53.2367 288.372 52.0341 287.984 50.983C287.596 49.9318 287.018 49.108 286.251 48.5114C285.484 47.9148 284.528 47.6165 283.382 47.6165C282.283 47.6165 281.351 47.9053 280.584 48.483C279.816 49.0606 279.234 49.8703 278.836 50.9119C278.448 51.9536 278.254 53.1799 278.254 54.5909ZM309.106 43.6818V47.6591H296.564V43.6818H309.106ZM299.66 38.4545H304.802V58.9375C304.802 59.6288 304.906 60.1591 305.115 60.5284C305.333 60.8883 305.617 61.1345 305.967 61.267C306.317 61.3996 306.706 61.4659 307.132 61.4659C307.454 61.4659 307.747 61.4422 308.013 61.3949C308.287 61.3475 308.495 61.3049 308.638 61.267L309.504 65.2869C309.229 65.3816 308.836 65.4858 308.325 65.5994C307.823 65.7131 307.208 65.7794 306.478 65.7983C305.191 65.8362 304.031 65.642 302.998 65.2159C301.966 64.7803 301.147 64.108 300.541 63.1989C299.944 62.2898 299.651 61.1534 299.66 59.7898V38.4545ZM327.313 56.3239V43.6818H332.455V65.5H327.469V61.6222H327.242C326.749 62.8437 325.94 63.8428 324.813 64.6193C323.696 65.3958 322.318 65.7841 320.679 65.7841C319.249 65.7841 317.985 65.4669 316.887 64.8324C315.798 64.1884 314.946 63.2557 314.33 62.0341C313.714 60.803 313.407 59.3163 313.407 57.5739V43.6818H318.549V56.7784C318.549 58.161 318.928 59.2595 319.685 60.0739C320.443 60.8883 321.437 61.2955 322.668 61.2955C323.426 61.2955 324.16 61.1108 324.87 60.7415C325.58 60.3722 326.162 59.8229 326.617 59.0938C327.081 58.3551 327.313 57.4318 327.313 56.3239ZM337.743 65.5V43.6818H342.728V47.3182H342.956C343.353 46.0587 344.035 45.0881 345.001 44.4062C345.977 43.715 347.089 43.3693 348.339 43.3693C348.623 43.3693 348.941 43.3835 349.291 43.4119C349.651 43.4309 349.949 43.464 350.186 43.5114V48.2415C349.968 48.1657 349.622 48.0994 349.149 48.0426C348.685 47.9763 348.235 47.9432 347.799 47.9432C346.862 47.9432 346.019 48.1468 345.271 48.554C344.532 48.9517 343.95 49.5057 343.524 50.2159C343.098 50.9261 342.885 51.7453 342.885 52.6733V65.5H337.743ZM362.363 65.9261C360.175 65.9261 358.286 65.4716 356.695 64.5625C355.114 63.6439 353.897 62.3466 353.044 60.6705C352.192 58.9848 351.766 57.0009 351.766 54.7188C351.766 52.4744 352.192 50.5047 353.044 48.8097C353.906 47.1051 355.109 45.7794 356.652 44.8324C358.196 43.8759 360.009 43.3977 362.093 43.3977C363.437 43.3977 364.706 43.6155 365.9 44.0511C367.102 44.4773 368.163 45.1402 369.081 46.0398C370.009 46.9394 370.739 48.0852 371.269 49.4773C371.799 50.8598 372.064 52.5076 372.064 54.4205V55.9972H354.181V52.5312H367.135C367.126 51.5464 366.913 50.6705 366.496 49.9034C366.08 49.1269 365.497 48.5161 364.749 48.071C364.01 47.6259 363.149 47.4034 362.164 47.4034C361.113 47.4034 360.189 47.6591 359.394 48.1705C358.598 48.6723 357.978 49.3352 357.533 50.1591C357.098 50.9735 356.875 51.8684 356.866 52.8438V55.8693C356.866 57.1383 357.098 58.2273 357.562 59.1364C358.026 60.036 358.674 60.7273 359.508 61.2102C360.341 61.6837 361.316 61.9205 362.434 61.9205C363.182 61.9205 363.859 61.8163 364.465 61.608C365.071 61.3902 365.597 61.0729 366.042 60.6562C366.487 60.2396 366.823 59.7235 367.05 59.108L371.851 59.6477C371.548 60.9167 370.971 62.0246 370.118 62.9716C369.276 63.9091 368.196 64.6383 366.88 65.1591C365.563 65.6705 364.058 65.9261 362.363 65.9261Z" fill="white"/>
</svg>
